# Blender v2.79 (sub 0) OBJ File: 'standart.blend'
# www.blender.org
mtllib shogi_piece.mtl
o Cube_Cube.001
v -0.638841 -0.148006 0.605140
v -0.638841 0.132646 0.605141
v -0.725084 0.132646 -0.794715
v -0.725084 -0.148006 -0.794715
v 0.000000 0.132646 -0.794715
v 0.725084 0.132646 -0.794715
v 0.725084 -0.148006 -0.794715
v 0.000000 -0.148006 -0.794715
v 0.638841 0.132646 0.605141
v 0.638841 -0.148006 0.605140
v 0.000000 0.132646 0.879786
v 0.000000 -0.148006 0.879785
vt 0.499893 0.121354
vt 0.499894 0.221109
vt 0.000106 0.221109
vt 0.000106 0.121354
vt 0.500000 0.246815
vt 0.999900 0.246815
vt 0.999900 0.342604
vt 0.500000 0.342604
vt 0.999894 0.121354
vt 0.999894 0.221109
vt 0.500106 0.221109
vt 0.500107 0.121354
vt 0.999553 -0.001927
vt 0.999557 0.090742
vt 0.498019 0.090743
vt 0.498015 -0.001927
vt 0.250000 0.469710
vt 0.250000 0.996471
vt 0.029735 0.910074
vt 0.000000 0.469710
vt -0.000423 -0.001927
vt -0.000419 0.090743
vt 0.500000 0.469709
vt 0.470265 0.910074
vt 0.500000 0.469710
vt 0.750000 0.469710
vt 0.750000 0.996471
vt 0.529735 0.910074
vt 1.000000 0.469710
vt 0.970265 0.910074
vt 0.000100 0.342604
vt 0.000100 0.246815
vn -0.9981 -0.0000 0.0615
vn 0.0000 0.0000 -1.0000
vn 0.9981 -0.0000 0.0615
vn 0.3950 -0.0000 0.9187
vn -0.0000 1.0000 0.0000
vn -0.3950 -0.0000 0.9187
vn 0.0000 -1.0000 -0.0000
usemtl None
s 1
f 1/1/1 2/2/1 3/3/1 4/4/1
f 5/5/2 6/6/2 7/7/2 8/8/2
f 7/9/3 6/10/3 9/11/3 10/12/3
f 10/13/4 9/14/4 11/15/4 12/16/4
f 5/17/5 11/18/5 9/19/5 6/20/5
f 1/21/6 12/16/6 11/15/6 2/22/6
f 3/23/5 2/24/5 11/18/5 5/17/5
f 4/25/7 8/26/7 12/27/7 1/28/7
f 7/29/7 10/30/7 12/27/7 8/26/7
f 4/31/2 3/32/2 5/5/2 8/8/2
